<mxfile host="Electron" modified="2023-11-19T21:15:49.296Z" agent="Mozilla/5.0 (Windows NT 10.0; Win64; x64) AppleWebKit/537.36 (KHTML, like Gecko) draw.io/22.0.2 Chrome/114.0.5735.289 Electron/25.8.4 Safari/537.36" etag="Mia2yVdgnp89PscYBwxI" version="22.0.2" type="device">
  <diagram name="Page-1" id="gc7wvjrs76IyHnxh_eSw">
    <mxGraphModel dx="1098" dy="820" grid="0" gridSize="10" guides="1" tooltips="1" connect="1" arrows="1" fold="1" page="1" pageScale="1" pageWidth="827" pageHeight="1169" math="0" shadow="0">
      <root>
        <mxCell id="0" />
        <mxCell id="1" parent="0" />
        <mxCell id="XCKRrSG3KaatJ_3gmuuU-1" value="&lt;h1 style=&quot;font-size: 26px;&quot;&gt;&lt;font style=&quot;font-size: 26px;&quot;&gt;Contrato UC10: Iniciar Pesquisa Contato FarmacoVigilância&lt;/font&gt;&lt;/h1&gt;&lt;p style=&quot;font-size: 26px;&quot;&gt;Operação: pequisaContatoFarmacovigilancia()&lt;/p&gt;&lt;p style=&quot;font-size: 26px;&quot;&gt;Referencias:Use Cases: Pesquisar Contato de FarmacoVigilância&lt;/p&gt;&lt;p style=&quot;font-size: 26px;&quot;&gt;Pré-Condições: O utilizador indica que pretende pesquisar o contato de farmacovigilância.&lt;/p&gt;&lt;p style=&quot;font-size: 26px;&quot;&gt;Pós-Condições: O Sistema pede o nome do medicamento&lt;/p&gt;&lt;p style=&quot;font-size: 26px;&quot;&gt;&lt;br&gt;&lt;/p&gt;&lt;p style=&quot;font-size: 26px;&quot;&gt;&lt;span style=&quot;&quot;&gt;&lt;span style=&quot;white-space: pre;&quot;&gt;&amp;nbsp;&amp;nbsp;&amp;nbsp;&amp;nbsp;&lt;/span&gt;&lt;span style=&quot;&quot;&gt;&lt;span style=&quot;white-space: pre;&quot;&gt;&amp;nbsp;&amp;nbsp;&amp;nbsp;&amp;nbsp;&lt;/span&gt;&lt;/span&gt;&lt;span style=&quot;&quot;&gt;&lt;span style=&quot;white-space: pre;&quot;&gt;&amp;nbsp;&amp;nbsp;&amp;nbsp;&amp;nbsp;&lt;/span&gt;&lt;/span&gt; &lt;/span&gt;&amp;nbsp;&amp;nbsp;&lt;br&gt;&lt;/p&gt;&lt;p style=&quot;font-size: 26px;&quot;&gt;&lt;br&gt;&lt;/p&gt;" style="text;html=1;strokeColor=none;fillColor=none;spacing=5;spacingTop=-20;whiteSpace=wrap;overflow=hidden;rounded=0;" vertex="1" parent="1">
          <mxGeometry x="30" y="30" width="650" height="400" as="geometry" />
        </mxCell>
        <mxCell id="XCKRrSG3KaatJ_3gmuuU-2" value="&lt;h1 style=&quot;font-size: 26px;&quot;&gt;&lt;font style=&quot;font-size: 26px;&quot;&gt;Contrato UC10: Indicar Termo de Pesquisa&lt;/font&gt;&lt;/h1&gt;&lt;p style=&quot;font-size: 26px;&quot;&gt;Operação: indicatTermoPesquisa(termoP)&lt;/p&gt;&lt;p style=&quot;font-size: 26px;&quot;&gt;Referencias:Use Cases: Pesquisar Contato de FarmacoVigilância&lt;/p&gt;&lt;p style=&quot;font-size: 26px;&quot;&gt;Pré-Condições: O sistema pediu o nome do medicamento.&lt;/p&gt;&lt;p style=&quot;font-size: 26px;&quot;&gt;Pós-Condições: O utilizador indica o termo de pesquisa para o medicamento. O Sistema mostra o nome, email e o telefone da farmacovigilancia.&lt;/p&gt;&lt;p style=&quot;font-size: 26px;&quot;&gt;&lt;br&gt;&lt;/p&gt;&lt;p style=&quot;font-size: 26px;&quot;&gt;&lt;span style=&quot;&quot;&gt;&lt;span style=&quot;white-space: pre;&quot;&gt;&amp;nbsp;&amp;nbsp;&amp;nbsp;&amp;nbsp;&lt;/span&gt;&lt;span style=&quot;&quot;&gt;&lt;span style=&quot;white-space: pre;&quot;&gt;&amp;nbsp;&amp;nbsp;&amp;nbsp;&amp;nbsp;&lt;/span&gt;&lt;/span&gt;&lt;span style=&quot;&quot;&gt;&lt;span style=&quot;white-space: pre;&quot;&gt;&amp;nbsp;&amp;nbsp;&amp;nbsp;&amp;nbsp;&lt;/span&gt;&lt;/span&gt; &lt;/span&gt;&amp;nbsp;&amp;nbsp;&lt;br&gt;&lt;/p&gt;&lt;p style=&quot;font-size: 26px;&quot;&gt;&lt;br&gt;&lt;/p&gt;" style="text;html=1;strokeColor=none;fillColor=none;spacing=5;spacingTop=-20;whiteSpace=wrap;overflow=hidden;rounded=0;" vertex="1" parent="1">
          <mxGeometry x="30" y="470" width="650" height="400" as="geometry" />
        </mxCell>
        <mxCell id="XCKRrSG3KaatJ_3gmuuU-3" value="&lt;h1 style=&quot;font-size: 26px;&quot;&gt;&lt;font style=&quot;font-size: 26px;&quot;&gt;Contrato UC10: Cancelar Pesquisa&lt;/font&gt;&lt;/h1&gt;&lt;p style=&quot;font-size: 26px;&quot;&gt;Operação: cancelarPesquisa()&lt;/p&gt;&lt;p style=&quot;font-size: 26px;&quot;&gt;Referencias:Use Cases: Pesquisar Contato de FarmacoVigilância&lt;/p&gt;&lt;p style=&quot;font-size: 26px;&quot;&gt;Pré-Condições: O utilizador iniciou uma pesquisa&lt;/p&gt;&lt;p style=&quot;font-size: 26px;&quot;&gt;Pós-Condições: O utilizador cancelou a pesquisa. A pesquisa é cancelada&lt;/p&gt;&lt;p style=&quot;font-size: 26px;&quot;&gt;&lt;br&gt;&lt;/p&gt;&lt;p style=&quot;font-size: 26px;&quot;&gt;&lt;span style=&quot;&quot;&gt;&lt;span style=&quot;white-space: pre;&quot;&gt;&amp;nbsp;&amp;nbsp;&amp;nbsp;&amp;nbsp;&lt;/span&gt;&lt;span style=&quot;&quot;&gt;&lt;span style=&quot;white-space: pre;&quot;&gt;&amp;nbsp;&amp;nbsp;&amp;nbsp;&amp;nbsp;&lt;/span&gt;&lt;/span&gt;&lt;span style=&quot;&quot;&gt;&lt;span style=&quot;white-space: pre;&quot;&gt;&amp;nbsp;&amp;nbsp;&amp;nbsp;&amp;nbsp;&lt;/span&gt;&lt;/span&gt; &lt;/span&gt;&amp;nbsp;&amp;nbsp;&lt;br&gt;&lt;/p&gt;&lt;p style=&quot;font-size: 26px;&quot;&gt;&lt;br&gt;&lt;/p&gt;" style="text;html=1;strokeColor=none;fillColor=none;spacing=5;spacingTop=-20;whiteSpace=wrap;overflow=hidden;rounded=0;" vertex="1" parent="1">
          <mxGeometry x="30" y="900" width="650" height="340" as="geometry" />
        </mxCell>
        <mxCell id="XCKRrSG3KaatJ_3gmuuU-4" value="&lt;h1 style=&quot;font-size: 26px;&quot;&gt;&lt;font style=&quot;font-size: 26px;&quot;&gt;Contrato UC10: Indicar Dados Em Falta&lt;/font&gt;&lt;/h1&gt;&lt;p style=&quot;font-size: 26px;&quot;&gt;Operação: indicarDadosEmFalta()&lt;/p&gt;&lt;p style=&quot;font-size: 26px;&quot;&gt;Referencias:Use Cases: Pesquisar Contato de FarmacoVigilância&lt;/p&gt;&lt;p style=&quot;font-size: 26px;&quot;&gt;Pré-Condições:&amp;nbsp; O utilizador não indicou a informação necessária.&lt;/p&gt;&lt;p style=&quot;font-size: 26px;&quot;&gt;Pós-Condições: O sistema informa os dados em falta e volta ao passo anterior.&lt;/p&gt;&lt;p style=&quot;font-size: 26px;&quot;&gt;&lt;br&gt;&lt;/p&gt;&lt;p style=&quot;font-size: 26px;&quot;&gt;&lt;span style=&quot;&quot;&gt;&lt;span style=&quot;white-space: pre;&quot;&gt;&amp;nbsp;&amp;nbsp;&amp;nbsp;&amp;nbsp;&lt;/span&gt;&lt;span style=&quot;&quot;&gt;&lt;span style=&quot;white-space: pre;&quot;&gt;&amp;nbsp;&amp;nbsp;&amp;nbsp;&amp;nbsp;&lt;/span&gt;&lt;/span&gt;&lt;span style=&quot;&quot;&gt;&lt;span style=&quot;white-space: pre;&quot;&gt;&amp;nbsp;&amp;nbsp;&amp;nbsp;&amp;nbsp;&lt;/span&gt;&lt;/span&gt; &lt;/span&gt;&amp;nbsp;&amp;nbsp;&lt;br&gt;&lt;/p&gt;&lt;p style=&quot;font-size: 26px;&quot;&gt;&lt;br&gt;&lt;/p&gt;" style="text;html=1;strokeColor=none;fillColor=none;spacing=5;spacingTop=-20;whiteSpace=wrap;overflow=hidden;rounded=0;" vertex="1" parent="1">
          <mxGeometry x="40" y="1260" width="650" height="370" as="geometry" />
        </mxCell>
        <mxCell id="XCKRrSG3KaatJ_3gmuuU-5" value="&lt;h1 style=&quot;font-size: 26px;&quot;&gt;&lt;font style=&quot;font-size: 26px;&quot;&gt;Contrato UC10: Indicar Medicamento Não Existe&lt;/font&gt;&lt;/h1&gt;&lt;p style=&quot;font-size: 26px;&quot;&gt;Operação: indicarMedicamentoNaoExiste()&lt;/p&gt;&lt;p style=&quot;font-size: 26px;&quot;&gt;Referencias:Use Cases: Pesquisar Contato de FarmacoVigilância&lt;/p&gt;&lt;p style=&quot;font-size: 26px;&quot;&gt;Pré-Condições:&amp;nbsp; O medicamento indicado pelo utilizador não existe.&lt;/p&gt;&lt;p style=&quot;font-size: 26px;&quot;&gt;Pós-Condições: O sistema informa que o Medicamento não existe e volta ao passo anterior.&lt;/p&gt;&lt;p style=&quot;font-size: 26px;&quot;&gt;&lt;br&gt;&lt;/p&gt;&lt;p style=&quot;font-size: 26px;&quot;&gt;&lt;span style=&quot;&quot;&gt;&lt;span style=&quot;white-space: pre;&quot;&gt;&amp;nbsp;&amp;nbsp;&amp;nbsp;&amp;nbsp;&lt;/span&gt;&lt;span style=&quot;&quot;&gt;&lt;span style=&quot;white-space: pre;&quot;&gt;&amp;nbsp;&amp;nbsp;&amp;nbsp;&amp;nbsp;&lt;/span&gt;&lt;/span&gt;&lt;span style=&quot;&quot;&gt;&lt;span style=&quot;white-space: pre;&quot;&gt;&amp;nbsp;&amp;nbsp;&amp;nbsp;&amp;nbsp;&lt;/span&gt;&lt;/span&gt; &lt;/span&gt;&amp;nbsp;&amp;nbsp;&lt;br&gt;&lt;/p&gt;&lt;p style=&quot;font-size: 26px;&quot;&gt;&lt;br&gt;&lt;/p&gt;" style="text;html=1;strokeColor=none;fillColor=none;spacing=5;spacingTop=-20;whiteSpace=wrap;overflow=hidden;rounded=0;" vertex="1" parent="1">
          <mxGeometry x="40" y="1640" width="650" height="370" as="geometry" />
        </mxCell>
        <mxCell id="XCKRrSG3KaatJ_3gmuuU-6" value="&lt;h1 style=&quot;font-size: 26px;&quot;&gt;&lt;font style=&quot;font-size: 26px;&quot;&gt;Contrato UC10: Indicar Interaçãoes Alimentares Não Existe&lt;/font&gt;&lt;/h1&gt;&lt;p style=&quot;font-size: 26px;&quot;&gt;Operação: indicarInteracaoAlimentarNaoExiste()&lt;/p&gt;&lt;p style=&quot;font-size: 26px;&quot;&gt;Referencias:Use Cases: Pesquisar Contato de FarmacoVigilância&lt;/p&gt;&lt;p style=&quot;font-size: 26px;&quot;&gt;Pré-Condições:&amp;nbsp; O medicamento selecionado não tem interações alimentares.&lt;/p&gt;&lt;p style=&quot;font-size: 26px;&quot;&gt;Pós-Condições: O sistema indica que não existem interações alimentares para o medicamento selecionado e volta ao passo anterior.&lt;/p&gt;&lt;p style=&quot;font-size: 26px;&quot;&gt;&lt;br&gt;&lt;/p&gt;&lt;p style=&quot;font-size: 26px;&quot;&gt;&lt;span style=&quot;&quot;&gt;&lt;span style=&quot;white-space: pre;&quot;&gt;&amp;nbsp;&amp;nbsp;&amp;nbsp;&amp;nbsp;&lt;/span&gt;&lt;span style=&quot;&quot;&gt;&lt;span style=&quot;white-space: pre;&quot;&gt;&amp;nbsp;&amp;nbsp;&amp;nbsp;&amp;nbsp;&lt;/span&gt;&lt;/span&gt;&lt;span style=&quot;&quot;&gt;&lt;span style=&quot;white-space: pre;&quot;&gt;&amp;nbsp;&amp;nbsp;&amp;nbsp;&amp;nbsp;&lt;/span&gt;&lt;/span&gt; &lt;/span&gt;&amp;nbsp;&amp;nbsp;&lt;br&gt;&lt;/p&gt;&lt;p style=&quot;font-size: 26px;&quot;&gt;&lt;br&gt;&lt;/p&gt;" style="text;html=1;strokeColor=none;fillColor=none;spacing=5;spacingTop=-20;whiteSpace=wrap;overflow=hidden;rounded=0;" vertex="1" parent="1">
          <mxGeometry x="60" y="2030" width="650" height="432" as="geometry" />
        </mxCell>
      </root>
    </mxGraphModel>
  </diagram>
</mxfile>
